<svg width="360" height="299" viewBox="0 0 360 299" fill="none" xmlns="http://www.w3.org/2000/svg">
<path opacity="0.1" d="M-7.65063 90.3637C-7.65063 90.3637 40.5295 180.832 113.674 200.302C186.818 219.772 233.075 202.888 291.331 218.395C349.588 233.902 365.537 284.656 415.864 298.053L508.254 -49.036L61.1363 -168.053L-7.65063 90.3637Z" fill="#B9202B"/>
<path opacity="0.2" d="M-14.7645 155.843C-14.7645 155.843 64.9795 201.91 132.112 183.067C199.245 164.223 228.342 130.317 281.811 115.309C335.279 100.301 371.196 131.221 417.387 118.256L332.133 -185.482L-78.3873 -70.2558L-14.913 155.885L-14.7645 155.843Z" fill="#B9202B"/>
<path opacity="0.3" d="M365 85.4234C365 85.4234 309.008 145.586 248.316 145.586C187.624 145.586 155.263 122.962 106.925 122.962C58.586 122.962 35.7593 159 -5.99997 159V-129H365V85.4234Z" fill="#B9202B"/>
</svg>
